<?xml version="1.0" ?><svg height="512" id="Layer_1" version="1.1" viewBox="0 0 512 512" width="512" xml:space="preserve" xmlns="http://www.w3.org/2000/svg" xmlns:cc="http://creativecommons.org/ns#" xmlns:dc="http://purl.org/dc/elements/1.1/" xmlns:inkscape="http://www.inkscape.org/namespaces/inkscape" xmlns:rdf="http://www.w3.org/1999/02/22-rdf-syntax-ns#" xmlns:sodipodi="http://sodipodi.sourceforge.net/DTD/sodipodi-0.dtd" xmlns:svg="http://www.w3.org/2000/svg"><defs id="defs12"/><g id="g6597"><rect height="512" id="rect2987" style="fill:#12923b;fill-opacity:1;fill-rule:nonzero;stroke:none" width="512" x="0" y="1.7053026e-013"/><path d="m 219.77356,125.23199 c 27.58663,23.51997 38.08439,64.75994 27.58663,99.231 -11.82665,31.10219 -64.55992,31.19108 -75.58657,-0.90222 -11.3111,-32.15107 -6.42666,-73.02659 17.75108,-98.25767 8.42666,-8.49333 22.11109,-9.97777 30.24886,-0.0711 z m 72.10657,-31.124406 c -28.40885,13.106646 -29.95996,51.515486 -28.83996,78.915476 2.13777,25.08886 9.60887,62.75548 41.1155,63.79103 36.17329,-14.51554 35.35996,-61.3377 30.32885,-93.7199 -3.11111,-21.73776 -15.82664,-52.866596 -42.60439,-48.986606 z M 431.8844,140.92974 c -15.38665,-3.94221 -38.23995,-4.91555 -45.19106,13.02665 -22.99997,46.31552 -20.91997,103.03546 -53.62215,145.17318 -26.39552,32.0044 -68.77325,54.49771 -110.92875,47.41772 -22.40886,-3.57333 -43.71106,-16.44887 -55.4666,-36.24885 -23.76885,-39.3555 -24.80441,-90.77766 -52.79993,-127.28873 -69.133245,-29.58665 -58.137695,55.83994 -55.862145,70.11103 0.10667,0.64889 0.21778,1.29778 0.32889,1.94666 0,0.0267 0.0133,0.0933 0.0133,0.0933 l 0,0 c 3.28,20.62664 4.373327,41.86662 14.315537,60.64437 39.044388,80.55546 139.928708,119.11096 224.013048,95.59099 92.51988,-26.43108 156.6487,-121.04873 159.3154,-215.96862 -0.52,-19.72886 -3.6312,-45.63996 -24.11557,-54.49773 z" id="Friendster" style="fill:#ffffff;fill-opacity:1"/></g></svg>